<?xml version="1.0" encoding="utf-8"?>
<!-- Generator: Adobe Illustrator 19.2.0, SVG Export Plug-In . SVG Version: 6.00 Build 0)  -->
<svg version="1.1" id="Layer_1" xmlns="http://www.w3.org/2000/svg" xmlns:xlink="http://www.w3.org/1999/xlink" x="0px" y="0px"
	 viewBox="0 0 271.5 201.9" style="enable-background:new 0 0 271.5 201.9;" xml:space="preserve">
<style type="text/css">
	.st0{fill:#2F2010;}
	.st1{fill:#CFD0D1;}
	.st2{fill:#FBCB1D;}
	.st3{fill:#FBCC1D;}
	.st4{fill:#4C64A9;}
	.st5{fill:#FCCB23;}
	.st6{fill:#4D66A9;}
	.st7{fill:#CFD1D2;}
	.st8{fill:#D7332C;}
	.st9{fill:#4D62AA;}
	.st10{fill:#DD2826;}
	.st11{fill:#54733D;}
	.st12{fill:#57743C;}
	.st13{fill:#D42F2A;}
	.st14{fill:#D2D3D5;}
	.st15{fill:#466931;}
	.st16{fill:#5266AA;}
	.st17{fill:#D82D2B;}
	.st18{fill:#56723D;}
	.st19{fill:#5B6F42;}
	.st20{fill:#45403B;}
	.st21{fill:#FCC619;}
	.st22{fill:#707BA0;}
	.st23{fill:#99AC8D;}
	.st24{fill:#1F1710;}
	.st25{fill:#CC2F2A;}
	.st26{fill:#F9CC29;}
	.st27{fill:#F2E7AC;}
	.st28{fill:#43659F;}
	.st29{fill:#58763D;}
	.st30{fill:#4A4640;}
	.st31{fill:#435C9C;}
	.st32{fill:#4C5B8D;}
	.st33{fill:#DB2529;}
	.st34{fill:#B04E4A;}
	.st35{fill:#D72E2A;}
	.st36{fill:#D53F36;}
	.st37{fill:#506AA2;}
	.st38{fill:#F6CE35;}
	.st39{fill:#F4E099;}
	.st40{fill:#516B32;}
	.st41{fill:#E43F35;}
	.st42{fill:#ECC554;}
	.st43{fill:#ECEBB6;}
	.st44{fill:#EFE9C5;}
	.st45{fill:#DFDFDF;}
	.st46{fill:#EFD841;}
	.st47{fill:#56723B;}
	.st48{fill:#55723A;}
	.st49{fill:#CFD1D1;}
	.st50{fill:#DE2727;}
	.st51{fill:#4F67A7;}
	.st52{fill:#4963A7;}
	.st53{fill:#CE2C27;}
	.st54{fill:#D53630;}
	.st55{fill:#4B5CA6;}
	.st56{fill:#DE2827;}
	.st57{fill:#D62C2C;}
	.st58{fill:#A42A27;}
	.st59{fill:#AE2527;}
	.st60{fill:#4963A4;}
	.st61{fill:#EDC924;}
	.st62{fill:#C49A6C;}
	.st63{fill:none;stroke:#C3996B;stroke-width:3;stroke-miterlimit:10;}
</style>
<g>
	<path class="st0" d="M154.3,111.9c-6.5-8.3-11.1-18-18.7-25.9c-5.9,7.1-10.9,14.4-15.4,22.2c-0.9,1.5-1.1,4.2-3.9,3.6
		c-1.6-0.9-1.5-2.6-1.9-4l0,0c-3.4-1.4-6.9-2.3-10.3,0.1c-3.7,3.4-6.7,7.4-9.3,11.8c-0.9,1.5-2.8,3.4-4.6,0.6
		c-2.1-3.2-3.9-1.6-5.2,0.5c-3.9,6.4-9.5,11.4-13.5,17.6c-1.7,2.7-3.9,2.6-6.4,2.5c-12.2,0-11.9,0-10.3-12.1
		c1.1-8.6,3.5-16.9,6.1-25c2.2-6.8,6.9-12.5,11.2-18.1c14.1-18.1,32.7-28.4,55.3-31.6c2.8-0.4,5.2,0.8,7.9,0.9
		c3.6,0.6,7.3,0.6,10.9,0c4.9-0.4,9,3.1,13.9,2.9c10.5,2.7,20.3,6.5,27.3,15.3c4.7,4,10.4,6.8,13.5,12.5c4.1,6,8.6,11.6,11.2,18.5
		c2.2,5,2.3,10.5,4,15.6c0.3,0.8,0.4,1.6,0.6,2.3c2.4,5.2,1.4,10.6,1.3,16c0,1.6-0.9,3.4-2.4,3.4c-5.2,0-10.6,2.1-15.5-1.4
		c-3.9-7.4-10.7-12.7-14.6-20.1c-0.8-1.6-2.5-3-4.2-0.6c-2.2,3-3.9,1-5-0.7c-2.8-4.2-7.3-6.8-9.5-11.5c-0.9-2-2.8-1.9-4.2-1
		c-2.4,1.4-7.5-1.1-7.2,4.6C155.8,111.7,155.2,111.9,154.3,111.9z"/>
	<path class="st1" d="M176.3,26.9c-1.6,6.6,0.4,14.1-5.4,19.6c-0.9,0.9-1.6,2.4-3.1,1.9c-1.5-0.5-1.5-2-1.6-3.3
		c-0.2-3.6,0.3-6.8,2.7-9.8c2.3-3,4.2-6.3,6.3-9.5C176.1,25.7,176.6,25.9,176.3,26.9z"/>
	<path class="st1" d="M19.3,115.4c4.8-0.7,9.3-0.4,14-1.3c3.8-0.8,6.5,2.7,9.7,4.1c0.7,0.3,1.2,1.3,0.8,2.1
		c-0.5,1.2-1.7,1.4-2.9,1.5C32.7,123,26.2,118.7,19.3,115.4z"/>
	<path class="st2" d="M206.4,75.8c-0.4-4.8,4.6-6.2,6.1-9.8c2.9,0.4,4.8-1.7,6.9-2.9c1.7-0.9,2.9-0.6,4.3-0.3
		c-3.5,5.4-5.5,12.3-13.4,13.2C209,76.9,207.6,77.1,206.4,75.8z"/>
	<path class="st3" d="M64.5,75.9c-0.3,0.2-0.4,0.4-0.3,0.7c-1.5,1.4-2.8,0.6-4-0.5c-4.4-2.1-8.7-4.2-9.1-10
		c-0.5-1.3-0.6-2.3,1.2-2.4c4.1,0.7,7.8,2.1,10,6.1c0.5,0.8,1.4,1.3,1.7,2.2c0,0.3,0.1,0.6,0.2,0.8C64.9,73.9,65.1,74.9,64.5,75.9z"
		/>
	<path class="st4" d="M150.3,43.8c-2.5-8.2,1.4-15.1,4.9-22c1.5-0.2,1.4,0.8,1.5,1.8c0.2,1.8-0.3,3.6,0.4,5.3c0,0.6,0.1,1.3,0.1,1.9
		c1.2,2,0.7,4,0.2,6c-1.4,2-2.8,4-4.2,6C152.5,43.9,151.8,45.2,150.3,43.8z"/>
	<path class="st5" d="M132.4,35.9c-1.4-5.3,1.9-9.9,2.1-15c0.4-0.3,0.8-0.4,1.2-0.3c1.8,0.4,2,2,2.5,3.4c0.2,2.4,0.3,4.7,1.6,7
		c0.8,1.3,1.2,3.4-0.4,4.9c-0.2-0.2-0.4-0.5-0.5-0.8c-0.1-0.6-0.1-1.2-0.1-1.8c0,0.4,0,0.9,0,1.3c0,0.5,0.2,1,0.5,1.3
		c-0.7,1.6-1.4,3.3-2,4.9c-0.5,1.4-1.5,1.8-2.9,1.4C132.1,40.6,134.4,37.6,132.4,35.9z"/>
	<path class="st6" d="M66.2,50.2c4.8,2,8,5.4,9.4,10.5c0.4,1.4,0.9,2.5-0.3,3.5c-1.5,1.2-2.5,0.2-3.8-0.6c-4.2-2.6-6.5-6.3-8-10.8
		C64.1,51.7,65,50.8,66.2,50.2z"/>
	<path class="st7" d="M84.2,51.9c-3.1-1.5-3.7-4.5-4.6-7.4c-1.2-3.9-2.3-7.8-3-12c3.4,4.9,8.2,8.5,11.6,13.3
		C89.4,49.6,87.4,51.2,84.2,51.9z"/>
	<path class="st8" d="M100.4,32.7c1.8,1.6,3.5,3.3,4,5.8c0.4,3,0.8,6.1-0.2,9.1c-4.4,1.5-4-3.1-6-4.7c-0.9-1.1-0.3-2.4-0.5-3.6
		c-0.1-0.7-0.4-1-0.3-0.4c0,0-0.2,0.2-0.4,0.3c-1-1.6-0.9-3.5-0.7-5.3C97.5,32.8,99.1,33.3,100.4,32.7z"/>
	<path class="st9" d="M26.2,134.1c4.5-2.8,9.1-1.2,13.7-0.1c1.3,0.3,2.5,0.9,2.4,2.6c-0.1,2.2-1.9,1.1-3,1.4
		c-0.8,0.7-2.9-1.3-2.9,1.3c-2.1,1.2-4.2,1.1-6.2-0.2c-1.6-1.1-4.7-0.4-4.7-3.7C25.7,134.9,25.9,134.4,26.2,134.1z"/>
	<path class="st10" d="M190.2,49.9c-1,0.4-1.6,1-2,2c-1.5,1.7-2.9,3.5-5.4,3.6c-2.9-1.5-2.9-3.3-0.8-5.5c0.2-0.7,0.3-1.3,0.5-2
		c1.4-1.6,2.7-3.2,3.7-5.2c0.3-0.3,0.6-0.6,0.9-0.9c1.7-0.6,2.6,0.6,3.4,1.7c0.6,1.5,0.1,3.1,0.5,4.6
		C191,48.9,190.8,49.5,190.2,49.9z"/>
	<path class="st11" d="M53.2,85.9c1.7,0.8,2.8,2.3,1.4,3.8c-2,2.3-3.8,0.1-5.6-0.7c-3.3-0.8-5-3.9-8-5c-0.9-0.6-1.8-1.3-2.8-1.9
		c-0.1-0.3-0.1-0.5-0.1-0.8c0.4-3.6,2.8-1.4,4.4-1.6l0-0.1c0.8,1.9,2.8,0.9,4,1.7C49,82.5,50.9,84.5,53.2,85.9z"/>
	<path class="st12" d="M118.4,27.8c1.5,1.4,2,3.3,2.8,5c0.5,1.7-0.4,3.4,0.2,5.1c-0.4,1.9,0.8,4.1-1.2,5.6c-0.9-0.7-2-0.7-3.1-0.5
		c-0.7-1.6-1.3-3.3-2-4.9c-0.3-2.6,0.5-5.1,0.2-7.7C115.2,28.7,115.7,26.8,118.4,27.8z"/>
	<path class="st13" d="M33.2,101.9c-2.5-1.8-5-3.5-8.2-5.8c4-0.7,7.3-0.3,10.6,0.7c-0.2,0.5-0.7,0.9-0.9,1.4
		c0.9,0.8,2.3,0.5,3.2,1.3c1.5,1.3,1.4,1.8-0.7,3.5c-0.9-0.7-1.9-0.3-2.8-0.1C33.9,102.5,33.6,102.2,33.2,101.9z"/>
	<path class="st14" d="M84.2,51.9c1.4-2,4.4-2.9,4-6c1.8,1.7,0.5,4.1,1.5,6c0.8,1.5,0.5,3-1.2,3.7c-1.7,0.7-2.7-0.5-3.4-1.9
		C84.8,53.1,84.5,52.5,84.2,51.9z"/>
	<path class="st15" d="M118.4,27.8c-2.8,0.3-2.6,2.7-2.1,4.1c1.1,2.6,0.1,4.4-1.3,6.3c-1.8-1.9-0.7-4.2-0.7-6.3
		c0.7-1.7,0.2-3.6,0.4-5.3c0.1-0.5,0.3-0.9,0.7-1.1c1-0.4,1.8-0.3,2.6,0.5C118.2,26.6,118.3,27.2,118.4,27.8z"/>
	<path class="st16" d="M66.2,50.2c-0.2,1.7-1.1,2.6-2.8,2.7c-0.8-0.7-1.6-1.3-2.3-2c-0.3-0.2-0.4-0.5-0.3-0.7
		c0.1-0.2,0.2-0.4,0.3-0.4C62,46.2,62,46.2,66.2,50.2z"/>
	<path class="st17" d="M190.2,43.9c-1-0.7-2.1-1.4-3.1-2.1c1-2.4,4.5-2.4,5-5.4c0.8,0.3,1.2,0.9,1.5,1.6c-1.8,2-1.1,4.4-1.4,6.7
		c-0.2,0.4-0.5,0.6-0.9,0.4C190.8,44.9,190.6,44.3,190.2,43.9z"/>
	<path class="st18" d="M42.4,79.7c-1.5,0.4-3.4-0.3-4.4,1.6c-1.3-1.5-4.2-1.3-4.8-4.1C36.9,76.4,39.6,78.5,42.4,79.7z"/>
	<path class="st19" d="M53.2,85.9c-2.9-0.3-5-2-7-4c-0.5-0.5-1.5-0.8-0.9-1.8c0.6,0,1.1,0,1.7,0c0.7,0.3,1.8,0,2.2,1
		c0.7,0.6,1.3,1.3,2,1.9C51.8,83.9,52.5,84.9,53.2,85.9z"/>
	<path class="st20" d="M112.1,113.9c0.4-0.7,0.8-1.4,1.2-2.1c1.4-1,2.2-0.1,3.1,0.9c-1.2,2.2-1.9,4.8-5,5.2
		C110,116.3,111.8,115.2,112.1,113.9z"/>
	<path class="st21" d="M52.4,63.8c-1,0.5-1.1,1.4-1.2,2.4c-1-0.2-2.3,0.1-2.9-1.3c-0.7-1.2-1-2.3,0.2-3.4
		C49.9,62,51.9,61.7,52.4,63.8z"/>
	<path class="st22" d="M157.1,29c-2.1-2,0.4-5.2-1.9-7.1c-0.1-1.2,0.3-2.2,1.6-3.4C157.8,22.1,156.9,25.6,157.1,29z"/>
	<path class="st23" d="M114.4,26c-0.4-2.6-0.5-5.3,0.6-8c1.6,1,1.2,2.1,1.2,3.2c0,1.6,0.5,3.3-1,4.6l0,0
		C115,26.3,114.7,26.3,114.4,26z"/>
	<path class="st24" d="M146.2,55.1c-3.7,1.3-7.3,1.4-10.9,0C138.9,54.7,142.6,54.5,146.2,55.1z"/>
	<path class="st25" d="M97.5,27.6c0.8,1.5,1.7,2.9,2.5,4.4c-1.3,1.1-2.5,1-3.8,0c-0.2-0.2-0.3-0.5-0.2-0.8
		C95.8,29.6,94.9,27.9,97.5,27.6z"/>
	<path class="st26" d="M134.2,41.7c-1.4-0.5-0.9-2.2-1.9-3c0-0.9,0-1.8,0-2.8c0.8-0.1,2.1-1.8,2.1,0.5
		C134.5,38.2,134.3,39.9,134.2,41.7z"/>
	<path class="st27" d="M138.1,24.1c-0.9-1.1-1.8-2.1-2.7-3.2c-0.2-1.1-0.2-2.3,0.7-3.2c0.4-0.2,0.8-0.2,1.2,0.2
		C138.8,19.8,138.1,22,138.1,24.1z"/>
	<path class="st28" d="M36.4,139.2c0-1.1-2.8-1.6-1.1-3c1.7-1.3,2.8,0.8,4,1.7C38.7,139.3,37.4,138.9,36.4,139.2z"/>
	<path class="st29" d="M115.2,25.8c-0.4-1.7-0.1-3.2,1-4.6c1.5,1.2,1.4,3,1.9,4.7C117.1,25.9,116.1,25.9,115.2,25.8z"/>
	<path class="st30" d="M154.3,111.9c0.3-0.4,0.7-0.8,1-1.2c1.3,1.4,2.6,2.7,2.8,5.2C155.6,115.3,155.2,113.4,154.3,111.9z"/>
	<path class="st31" d="M26.2,134.9c-0.2,2.9,3,2.4,4,4.1c-2-0.4-4-0.8-6-1.3C23.2,135.7,24.1,134.9,26.2,134.9z"/>
	<path class="st32" d="M22.2,136.8c-1.6,0.5-3.1,0.3-4.9-0.9c1.7-1.4,3.3-1,4.9-1C22.8,135.6,22.8,136.2,22.2,136.8z"/>
	<path class="st33" d="M96.3,31.9c1.3,0,2.5,0,3.8,0c0.3,0.2,0.4,0.5,0.3,0.8c-0.5,3.3-2.6,1.1-4.1,1.2
		C96.3,33.3,96.3,32.6,96.3,31.9z"/>
	<path class="st34" d="M97.5,27.6c-1.4,0.8-1.1,2.3-1.4,3.6c-1.3-2.2-1.1-4.5-0.9-7.2C96.9,24.8,97.3,26.1,97.5,27.6z"/>
	<path class="st35" d="M186.2,42.8c0.2,2.8-1.4,4.2-3.7,5.2C183,45.7,184.3,44,186.2,42.8z"/>
	<path class="st36" d="M104.2,47.7c0.1-3,0.1-6.1,0.2-9.1C105.1,41.6,106.1,44.7,104.2,47.7z"/>
	<path class="st37" d="M22.2,136.8c0-0.6,0-1.2,0-1.9c1.3-0.6,2.6-1.1,4-0.9c0,0.3,0,0.6,0,0.9c-1.3,0.5-1.9,1.4-1.9,2.8
		C23.6,137.4,22.9,137.1,22.2,136.8z"/>
	<path class="st38" d="M48.4,61.5c-0.1,1.1-0.1,2.3-0.2,3.4c-1.4-0.5-1.8-1.7-2.1-2.9c-0.5-0.7-0.5-1.5-0.1-2.2
		c0.8-0.4,1.5-0.5,2.1,0.2C48.3,60.5,48.3,61,48.4,61.5z"/>
	<path class="st29" d="M121.4,38c-2.2-1.6-0.9-3.4-0.2-5.1C122.7,34.5,122.6,36.3,121.4,38z"/>
	<path class="st39" d="M46.3,59.8c0,0.7-0.1,1.5-0.1,2.2c-1.4-0.2-1.9-1-1.9-2.3c0-1.3,0.8-1.6,1.9-1.6
		C46.7,58.6,46.8,59.2,46.3,59.8z"/>
	<path class="st18" d="M45.3,80.1c0.3,0.6,0.6,1.2,0.9,1.8c-1.6-0.2-3.9,0.8-3.8-2.2C43.4,79.8,44.3,80,45.3,80.1z"/>
	<path class="st40" d="M117.1,43.1c1.3-1.6,2.4-1.7,3.1,0.5C119.1,44.2,118,44.5,117.1,43.1z"/>
	<path class="st41" d="M193.6,38.1c-0.5-0.5-1-1.1-1.5-1.6c0.3-0.8,0.6-1.8,1.6-1.4c1.5,0.6,0.4,2,0.6,3
		C194,38.1,193.8,38.1,193.6,38.1z"/>
	<path class="st42" d="M136.2,18c0,1.1,0.4,2.2-0.8,2.9c-0.3,0-0.7,0-1,0c0-0.9,0-1.8,0.1-2.7C134.9,17.3,135.5,17.4,136.2,18z"/>
	<path class="st29" d="M114.4,26c0.3-0.1,0.5-0.1,0.8-0.2c-0.1,2,0.8,4.2-0.8,6C114.4,29.9,114.4,28,114.4,26z"/>
	<path class="st43" d="M228.1,58c0.2,1.4-0.5,2.3-1.6,3c-0.3-0.2-0.5-0.4-0.4-0.6c0-0.3,0.1-0.4,0.2-0.4
		C226.3,58.7,226.8,58,228.1,58z"/>
	<path class="st44" d="M136.2,18c-0.6,0.1-1.1,0.2-1.7,0.2c0-0.8-0.3-1.7,0.8-1.9c1.1-0.2,1.5,0.8,2,1.6
		C136.9,17.9,136.5,17.9,136.2,18z"/>
	<path class="st45" d="M176.3,26.9c-0.4-0.4-0.7-0.7-1.1-1.1c0.2-0.8,0.4-2,1.4-1.4C177.7,25.1,177.1,26.2,176.3,26.9z"/>
	<path class="st46" d="M226.2,60c0.1,0.3,0.1,0.7,0.2,1c-0.5,1.3-1.5,1.7-2.7,2C224.1,61.5,223.9,59.7,226.2,60z"/>
	<path class="st47" d="M254.2,136.1c-1.2,2.9-4,1.4-6,2c-2,0.6-4,1.3-6,1.9c-3.7,1.2-7.1,0.2-10.6-1c-1.6-0.6-2.8-1-2.7-2.9
		c0.1-1.7,1.6-1.7,2.8-2.2c4.5-1.7,8.8-0.4,13.2,0.2C248,134.9,251.3,134.4,254.2,136.1z"/>
	<path class="st48" d="M210.2,49.9c-2.3,2.2-3.4,5-4,8c-2,2.6-4.7,4.3-7.3,6.2c-2.6,1.9-4.2,1.2-4.6-2c1-1.9,1.3-4.1,2.5-6
		c0.3-0.7,0.8-1,1.5-1.1c3.2-2.4,6.5-4.7,9.6-7.2c0.8-0.7,1.6-1.5,2.5-0.9C211.7,47.8,209.7,48.8,210.2,49.9z"/>
	<path class="st49" d="M245.2,97.9c-3.3,0.6-5.7,2.7-8.1,4.7c-3.1,2.6-6.6,3.7-10.6,3.3c-1.3-0.1-2.8,0.2-3.1-1.7
		c-0.2-1.3,0.2-2.4,1.3-3c2.2-1.2,3.8-3.3,6.6-3.4c1.7-0.3,3.4-0.3,5-1c2.7-0.4,5.3-0.7,8-1.1c0.7,0.2,1.5,0.4,2.2,0.5
		C246,96.9,245.6,97.4,245.2,97.9z"/>
	<path class="st50" d="M240.2,121.9c-4,1.8-8-0.3-12,0.1l0,0c-1.1-2-2.6-4.1,1.5-4.1c1.8,0,2.2-2.5,4.1-2c1.8-0.9,3.2,0.5,4.7,1
		c0.9,1.1,2.1,2,2.9,3.2C241,120.6,240.6,121.2,240.2,121.9L240.2,121.9z"/>
	<path class="st51" d="M226.4,88.2c-0.5,0.8-1.3,0.9-2.1,0.8c-1.4-1.7-2.4-3.7-4.2-5.2c0.3-1.1,1.2-1.7,2.1-2.2
		c2.7-2.9,7-1.8,10.1-3.8c1.1,0.3,2.9-0.7,3.3,0.7c0.3,1.1-0.9,2.1-2.2,2.8c-1.5,0.8-2.7,2.3-4.1,3.5
		C225.7,83.6,227.6,87.3,226.4,88.2z"/>
	<path class="st52" d="M220.1,83.9c3.9-0.3,4.3,2.2,4.2,5.2c-3.2,0.1-7.2,3.7-8.9-2.1c0.3-0.3,0.7-0.7,1-1
		C218.1,86.2,218.8,84.4,220.1,83.9z"/>
	<path class="st53" d="M241.4,120c-2.1,0.1-3.5-0.6-3.2-3c1.6-3.1,4.1-1,6.2-1.1c1.9,0,3.8,0,6.8,0
		C247.7,118.6,244.3,118.7,241.4,120z"/>
	<path class="st54" d="M244.4,115.8c-2,0.7-4.4-0.7-6.2,1.1c-1.9,1.3-2.8-1.5-4.4-1.1C237.4,114.4,240.9,115,244.4,115.8z"/>
	<path class="st55" d="M226.4,88.2c-0.1-0.8-0.1-1.6-0.1-2.4c0-1.1-0.3-2.6,1-3c1.4-0.4,0.9,1.9,2.1,2.2
		C228.4,86.1,227.4,87.1,226.4,88.2z"/>
	<path class="st56" d="M37.1,103c2.1-2.3,0.7-2.7-1.4-3.3c-0.6-0.2-3.5,1.1-2.4-1.8c2.3-0.7,4.7-0.7,7.1,0c1.4-0.5,1.9,0.8,2.9,1.3
		c0.9,1.1,1.6,2.3,3.2,2.5l0.1,0.1c0.5,2.1-0.4,2.9-2.4,2.7c-2.1-0.2-4.3,0.4-6.4-0.5C37.5,103.6,37.3,103.3,37.1,103z"/>
	<path class="st18" d="M40.9,84c3.9-0.8,4.8,4.3,8.4,4.2c0,0,0.1,0.3,0,0.5c-0.1,0.1-0.2,0.2-0.3,0.4C45,89.4,43.1,86.5,40.9,84z"/>
	<path class="st57" d="M44.2,103.9c1.4,0,2-1,2.3-2.2c1.8,0.2,2.2,1.6,1.5,2.8c-0.9,1.7-2.5,1.9-4,0.6
		C43.6,104.7,43.7,104.2,44.2,103.9z"/>
	<path class="st58" d="M40.4,97.8c-2.4,0-4.7,0-7.1,0c0.7-0.4,1.5-0.7,2.2-1.1C37.2,96.9,39.1,96,40.4,97.8z"/>
	<path class="st59" d="M44.2,103.9c-0.1,0.4-0.2,0.8-0.3,1.2c-2.1-0.3-4.5,1-6.2-1.2C39.9,103.9,42.1,103.9,44.2,103.9z"/>
	<path class="st57" d="M46.4,101.6c-2.1,0.4-2.9-0.7-3.2-2.5C44.6,99.6,45.6,100.5,46.4,101.6z"/>
	<path class="st60" d="M153.1,32.2c0.3,0.3,0.7,0.7,0.6,0.7c-0.3,0.3-0.6,0.8-0.9,0.9c-0.5,0.1-1.1-0.1-0.8-0.8
		C152.2,32.6,152.7,32.4,153.1,32.2z"/>
	<path class="st61" d="M139.3,36c-1.3-1.2-1.2-2.5-0.6-4.2C139.7,33.2,139,34.6,139.3,36L139.3,36z"/>
	<path class="st35" d="M191.4,45.3c-0.1,1.1,0.1,2.3-1,3.1c-1-1.4-0.4-2.9-0.1-4.4C190.6,44.4,191,44.8,191.4,45.3z"/>
</g>
<g>
	<path class="st62" d="M49.4,157.3l0,0.5l0,0.5l0,0.4l-0.1,0.2l-0.2,0.2l-0.4,0.1H48l-1-0.1l-0.5,0h-2.1l-3.6,0.1l-1.4-0.1h-0.7
		l-0.3,0.1l-0.1,0.2l0,0.4l-0.1,2.8l0,0.4l0,0.2l0.2,0.1l0.4,0.1h0.8l1.1-0.1l0.5,0l1.9,0.1h2.4l0.5,0l1.2-0.1H48l0.4,0.1l0.2,0.2
		l0.1,0.3l0.1,0.4l0,0.3l0,0.5l-0.1,1v0.5l0,0.7l0,0.5l0,0.5l-0.1,0.4l-0.1,0.3l-0.2,0.1l-0.4,0.1h-0.8l-1.2-0.2l-0.5,0l-1.9,0.1
		h-0.5l-3.5-0.1l-0.5,0l-0.4,0.1l-0.3,0.1l-0.1,0.2v0.4l0,1.8v0.5l-0.1,1.8v0.5l0,0.7l0,0.5l0,0.5l0,0.4l-0.1,0.2l-0.2,0.1l-0.4,0.1
		l-0.5,0.1l-0.5,0l-1.2,0h-0.5l-1.3,0.1l-1-0.1l-0.4-0.1l-0.2-0.1l-0.1-0.2l0-0.4l-0.1-1.7l0-0.5l0-1.7l0-0.5l0.1-1.7l0-0.5
		l-0.1-1.7V167l-0.1-1.7v-0.5l0.1-1.7v-2.7l0.1-1.7v-2.7l0.1-1.7l0-0.4l0.1-0.2l0.2-0.1l0.3-0.1h0.7l1.2,0.1h0.5l1.9-0.1h0.5
		l1.9,0.1h0.5l1.9-0.1l0.5,0l1.9,0.1h0.5l1.9-0.1h0.5l0.8,0l0.5,0l0.5,0.1l0.4,0l0.2,0.1l0.1,0.2l0,0.4l0,0.3v0.5l-0.1,1v0.5
		L49.4,157.3z"/>
	<path class="st62" d="M76.4,175.7l0.1,0.4l-0.2,0.4l-0.4,0.2l-0.4,0.1H75l-0.7-0.1l-0.5,0h-1.4l-2,0.1l-0.4-0.1l-0.2-0.3l-0.2-0.4
		l-1-2.7l-0.2-0.3l-0.3-0.1l-0.4,0l-1.9-0.1h-0.5l-2.4-0.1l-1.9,0h-0.5l-0.5,0h-1.5l-0.4,0.1l-0.3,0.2l-0.2,0.4l-0.7,2.2l-0.2,0.5
		l-0.4,0.4l-0.5,0.2l-0.5,0l-1.9-0.1H53l-2,0.1l-0.4,0l-0.4-0.2l-0.3-0.4l0-0.4l0.1-0.3l0.2-0.5l0.4-1l0.2-0.5l0.8-1.8l0.2-0.4
		l0.8-1.8l0.2-0.5l0.7-1.7l0.2-0.5l0.9-1.8l0.2-0.4l1.2-2.6l0.9-1.9l0.2-0.5l0.7-1.4l0.2-0.5l0.6-1.5l0.2-0.5l0.6-1.3l0.2-0.4
		l0.3-0.2l0.5-0.1l1.5-0.1h2.5l1.5,0l0.5,0.1l0.4,0.3l0.2,0.4l0.4,1.2l0.2,0.5l0.8,1.5l0.2,0.4l0.7,1.6l0.2,0.4l0.6,1.6l0.2,0.4
		l0.7,1.5l0.2,0.4l0.7,1.6l0.2,0.4l0.6,1.6l0.2,0.4l1,2l0.8,1.5l0.2,0.4l0.9,2L76.4,175.7z M65.7,166.7l-0.1-0.4l-0.7-2.2l-0.2-0.5
		l-0.6-1.9l-0.2-0.4l-0.3-0.2l-0.4-0.1l-0.4,0.1l-0.3,0.3l-0.9,2.2l-0.2,0.5l-0.8,2.1l-0.1,0.5l0.1,0.4l0.4,0.2l0.4,0.1h2l1.5,0.1
		l0.4-0.1l0.3-0.3L65.7,166.7z"/>
	<path class="st62" d="M101.2,176.5l-0.4,0.1h-2.2l-1.8,0h-0.5l-1.4,0.1h-0.4l-0.3-0.1l-0.3-0.3l-1-1.4l-0.3-0.4l-1-1.4l-0.3-0.4
		l-0.9-1.5l-0.3-0.4l-1-1.4l-0.2-0.3l-0.2-0.1l-0.4,0l-1-0.1l-0.4,0l-0.3,0.2l-0.1,0.4l-0.1,1.8l0,0.5l0.1,1.8l0,0.5l0,0.8v0.5
		l0,0.5l-0.1,0.4l-0.2,0.2l-0.4,0.1h-0.5l-1.5-0.1l-1.5,0.1H82l-1.5-0.1l-0.4-0.1l-0.2-0.1l-0.1-0.3l0-0.4l0-0.5l0.1-0.8l0-0.5
		L80,172v-0.5l-0.1-1.7l0-0.5l0-1.7V167l0.1-1.7v-0.5l-0.1-1.7v-0.5l0.1-1.7v-0.5l0.1-1.7v-0.5l0-1.7v-0.5l-0.1-1.1l0-0.5l0-0.2
		l0.1-0.4l0.2-0.3l0.4-0.1l0.3,0l0.5,0l1.4,0.1l3.8,0.1l2.2-0.1h0.5l2.1,0.1h1.2l0.5,0l0.5,0.1l0.7,0.2l0.5,0.2l0.5,0.2l0.5,0.2
		l0.5,0.2l0.4,0.3l0.6,0.4l0.4,0.3l0.3,0.3l0.3,0.4l0.4,0.6l0.3,0.4l0.4,0.6l0.2,0.4l0.2,0.5l0.2,0.5l0.1,0.5l0,0.5l0.1,0.7v0.5
		l0,0.5l-0.1,0.5l-0.1,0.5l-0.1,0.5l-0.2,0.5l-0.2,0.5l-0.3,0.5l-0.3,0.4l-0.3,0.4l-0.3,0.4l-0.5,0.5l-0.4,0.3l-0.6,0.4l-0.4,0.2
		l-0.4,0.2l-0.4,0.1l-0.3,0.1l0.1,0.3l1.2,1.6l0.3,0.4l1.2,1.6l0.3,0.4l1.2,1.6l0.3,0.4l1,1.2l0.3,0.4l0.2,0.4L101.2,176.5z
		 M91.5,164.1l0.7-0.1l0.4-0.2l0.4-0.2l0.3-0.4l0.2-0.5l0.1-0.5l0-0.5l0-0.5l-0.1-0.5l-0.1-0.5l-0.2-0.5l-0.3-0.4l-0.4-0.3l-0.4-0.2
		l-0.7-0.2l-0.5-0.1l-1.6,0h-0.5l-1.6,0.1l-0.4,0l-0.2,0.1l-0.2,0.2l0,0.4l0,0.7l0.1,0.5l0.1,0.5l0,0.5l-0.1,1.8l0,0.4l0.1,0.2
		l0.2,0.1l0.4,0.1l1.7,0.1h0.5L91.5,164.1z"/>
	<path class="st62" d="M129.9,173.7l0,0.5l0.1,1l0,0.5l0,0.3l0,0.4l-0.2,0.3l-0.2,0.2l-0.4,0.1l-0.5,0h-0.5l-1.3-0.1l-0.5,0h-0.8
		l-0.6,0l-1.2-0.2l-0.2-0.1l-0.1-0.2l0-0.3l0-0.4l0-0.5l0.1-1.1v-3l-0.1-2v-0.5l0.1-2v-2.5l-0.1-0.4l-0.2-0.1h-0.2l-0.2,0.3
		l-0.3,0.4l-1.3,1.5l-2,2.3l-1.3,1.6l-0.3,0.3l-0.2,0.1h-0.3l-0.4-0.1l-0.4-0.1l-0.4-0.3l-1.6-1.9l-1.2-1.6l-0.3-0.4l-1.7-1.9
		l-0.4-0.4l-0.2,0.1l-0.1,0.4l-0.1,2v0.5l0.1,2v0.5l0.1,2v0.5l0,2v0.5l0,1l0,0.5l0,0.5l-0.1,0.4l-0.1,0.2l-0.2,0.1l-0.8,0.1l-0.5,0
		l-1.2-0.1l-0.5,0l-1.5,0.1h-0.7l-0.4-0.1l-0.2-0.2l-0.1-0.2l-0.1-0.3v-0.7l0.1-1v-4.9l-0.1-1.7V167l0-1.7l0-0.5l-0.1-1.7v-0.5
		l0.1-1.7l0-0.5l-0.1-1.7l0-0.5l0.1-1.7V156l-0.1-1.2v-0.5l0.1-0.4l0.1-0.2l0.2-0.2l0.3-0.1l0.4,0l0.5,0.1l0.7,0.2h0.5l1-0.1
		l0.5-0.1l0.5,0l1.2,0h0.4l0.4,0.2l0.3,0.4l1.1,1.2l0.3,0.4l0.9,1.3l0.3,0.4l1.1,1.2l0.3,0.4l1,1.2l0.3,0.4l0.3,0.2h0.3l0.3-0.2
		l0.3-0.3l1-1.3l0.3-0.4l1-1.2l0.3-0.4l1.1-1.2l0.3-0.4l0.8-1l0.3-0.4l0.3-0.3l0.3-0.2l0.4,0l1.7,0.1l1.5,0h0.5l1-0.1l0.5,0l0.4,0.1
		l0.2,0.1l0.2,0.2l0.1,0.3l0,0.4l-0.1,1.4l0,0.5l0.1,1.7v0.5l0,1.7v0.5l0,1.7v0.5l0.1,1.7v0.5L130,167v0.5l0.1,1.7v0.5l-0.1,1.7v0.5
		L129.9,173.7z"/>
	<path class="st62" d="M154.2,169.4l0,0.5l-0.1,0.5L154,171l-0.2,0.7l-0.2,0.4l-0.3,0.6l-0.2,0.4l-0.4,0.6l-0.3,0.4l-0.4,0.4
		l-0.4,0.4l-0.6,0.4l-0.4,0.3l-0.5,0.3l-0.4,0.2l-0.7,0.3l-1,0.3l-0.5,0.1l-0.8,0.1l-0.5,0.1l-0.7,0.1l-0.4,0l-0.7,0l-1.5,0.1h-0.7
		l-0.4,0l-0.7-0.1l-0.5-0.1l-0.5-0.1l-0.5-0.2l-0.7-0.2l-0.4-0.2l-0.5-0.2l-0.4-0.2l-0.4-0.3l-1-0.7l-0.4-0.3l-0.6-0.4l-0.4-0.3
		l-0.4-0.4l-0.3-0.3l0-0.2l0.2-0.3l0.1-0.2l0.3-0.4l0.9-0.8l0.3-0.4l0.5-0.8l0.3-0.4l0.3-0.4l0.4-0.2l0.4,0.1l0.4,0.3l1,0.7l0.5,0.3
		l0.4,0.2l0.7,0.4l0.5,0.2l0.5,0.2l0.5,0.1l0.7,0l0.5,0l2-0.1l0.5-0.1l0.3-0.1l0.5-0.2l0.4-0.3l0.3-0.3l0.2-0.2l0.2-0.5l0-0.5
		l-0.1-0.3l-0.3-0.4l-0.2-0.2l-0.4-0.3l-0.3-0.1l-0.5-0.2l-0.5-0.1l-0.5-0.1l-3-0.3l-1-0.2l-0.5-0.1l-0.7-0.3l-0.5-0.2l-0.5-0.2
		l-1.1-0.5l-0.4-0.3l-0.5-0.3l-0.4-0.3l-0.5-0.4l-0.3-0.4l-0.3-0.5l-0.2-0.5l-0.2-0.7l-0.1-0.5l-0.1-0.7l-0.1-1l0-0.5l0.1-0.8
		l0.1-0.5l0.1-0.4l0.2-0.5l0.3-0.7l0.2-0.4l0.3-0.4l0.3-0.4l0.5-0.5l0.4-0.3l0.4-0.3l0.4-0.2l0.6-0.4l1-0.4l0.5-0.2l0.7-0.1l0.5-0.1
		l1-0.1l0.7-0.1l0.5-0.1l0.5,0h0.5l1,0.1l0.5,0.1l0.2,0.1l0.5,0.1l1.1,0.2l0.5,0.1l0.5,0.2l0.5,0.2l0.5,0.2l0.5,0.2l0.5,0.2l0.6,0.4
		l0.4,0.2l0.4,0.3l0.3,0.3v0.3l-0.2,0.4l-0.4,0.6l-0.3,0.4l-1.2,1.6l-0.4,0.4l-0.4,0.3l-0.3,0.1l-0.2,0l-0.3-0.2l-0.5-0.3l-0.5-0.2
		l-0.2-0.1l-0.5-0.2l-0.3-0.1l-0.5-0.1l-0.7-0.2l-0.5,0l-0.8-0.1h-0.8l-0.5,0l-0.5,0.1l-0.5,0.2l-0.2,0.1l-0.4,0.3l-0.2,0.2
		l-0.2,0.4l-0.1,0.5l0.1,0.4l0.3,0.4l0.4,0.3l0.4,0.2l0.2,0.1l0.5,0.1l0.8,0.1l1.1,0.1l0.5,0.1l1.1,0.3l1,0.3l0.7,0.2l0.5,0.1
		l0.9,0.3l0.6,0.3l0.4,0.2l0.4,0.3l0.4,0.3l0.9,0.8l0.4,0.4l0.3,0.4l0.4,0.6l0.3,0.4l0.2,0.5l0.1,0.5l0.1,0.7l0.1,0.5L154.2,169.4z"
		/>
	<path class="st62" d="M174.8,156l0,0.5l0,1l0,0.5l0,0.3l-0.1,0.4l-0.1,0.2l-0.2,0.2L174,159h-0.5l-1-0.1l-0.5,0l-1.5,0.1H170
		l-0.8-0.1h-0.5l-0.2,0l-0.3,0.1l-0.1,0.2l0,0.4l-0.1,1.9v0.5l0.1,1.9l0,0.5l-0.1,1.9l0,0.5l0.1,1.9v2.9l-0.1,1.9l0,0.5l0.2,1.4
		l0,0.5l-0.1,0.4l-0.2,0.2l-0.4,0.1l-0.6,0l-0.8-0.1l-0.5,0l-1.4,0.1h-0.5l-1.4-0.1l-0.4,0l-0.2-0.1l-0.1-0.4v-0.5l0.1-1.3l0-0.5
		v-2.4l0-1.9v-0.5l0-1.9v-0.5l-0.1-1.9l0-0.5v-2.4l-0.1-1.9v-0.4l-0.1-0.3l-0.3-0.1h-0.5l-1,0.1h-0.6l-0.9-0.1l-0.5,0l-0.5,0l-0.7,0
		h-0.5l-0.3,0l-0.4-0.1l-0.2-0.1l-0.1-0.2l-0.1-0.3V158l0-0.5l0.1-1V156l-0.1-1.2l0-0.5l0.1-0.4l0.1-0.2l0.2-0.1l0.3-0.1h0.7
		l1.2,0.1h0.5l1.9-0.1h0.5l1.9,0.2h0.5l2.4-0.2l1.9,0h0.5l2.4,0h2.4l1.1-0.1l0.5,0l0.3,0l0.4,0.1l0.2,0.1l0.2,0.2l0.1,0.4v0.2l0,0.5
		L174.8,156z"/>
	<path class="st62" d="M198.7,175.7l0.1,0.4l-0.2,0.4l-0.4,0.2l-0.4,0.1h-0.4l-0.7-0.1l-0.5,0h-1.4l-2,0.1l-0.4-0.1l-0.2-0.3
		l-0.2-0.4l-1-2.7l-0.2-0.3l-0.3-0.1l-0.4,0l-1.9-0.1h-0.5l-2.4-0.1l-1.9,0h-0.5l-0.5,0h-1.5l-0.4,0.1l-0.3,0.2l-0.2,0.4l-0.7,2.2
		L179,176l-0.4,0.4l-0.5,0.2l-0.5,0l-1.9-0.1h-0.5l-2,0.1l-0.4,0l-0.4-0.2l-0.3-0.4l0-0.4l0.1-0.3l0.2-0.5l0.4-1l0.2-0.5l0.8-1.8
		l0.2-0.4l0.8-1.8l0.2-0.5l0.7-1.7l0.2-0.5l0.9-1.8l0.2-0.4l1.2-2.6l0.9-1.9l0.2-0.5l0.7-1.4l0.2-0.5l0.6-1.5l0.2-0.5l0.6-1.3
		l0.2-0.4l0.3-0.2l0.5-0.1l1.5-0.1h2.5l1.5,0l0.5,0.1l0.4,0.3l0.2,0.4l0.4,1.2l0.2,0.5l0.8,1.5l0.2,0.4l0.7,1.6l0.2,0.4l0.6,1.6
		l0.2,0.4l0.7,1.5l0.2,0.4l0.7,1.6l0.2,0.4l0.6,1.6l0.2,0.4l1,2l0.8,1.5l0.2,0.4l0.9,2L198.7,175.7z M188,166.7l-0.1-0.4l-0.7-2.2
		l-0.2-0.5l-0.6-1.9l-0.2-0.4l-0.3-0.2l-0.4-0.1l-0.4,0.1l-0.3,0.3l-0.9,2.2l-0.2,0.5l-0.8,2.1l-0.1,0.5l0.1,0.4l0.4,0.2l0.4,0.1h2
		l1.5,0.1l0.4-0.1l0.3-0.3L188,166.7z"/>
	<path class="st62" d="M218.8,153.8l-0.2,0.3l-2.3,3.4l-0.3,0.4l-1.1,1.5l-0.3,0.4l-0.9,1.6l-0.3,0.4l-1,1.5l-0.3,0.4l-1,1.5
		l-0.3,0.4l-1.1,1.5l-0.1,0.3v2.6l0.1,1.7l0,0.5l-0.1,1.7v0.5l0.1,1.3l0,0.4l-0.1,0.3l-0.1,0.1l-0.3,0.1h-2.1l-3.7-0.1l-0.1-0.1
		l-0.1-0.3v-3.9l0-0.5L203,170l0-0.5l0.1-1.7l-0.1-0.3l-0.2-0.2l-0.9-1.5l-0.3-0.4l-1-1.4l-0.3-0.4l-0.9-1.5l-0.3-0.4L197,158
		l-0.3-0.4l-1-1.5l-0.3-0.4l-0.9-1.5l-0.1-0.3l0-0.2l0.2-0.1h4.3l0.5,0l1.9,0.1l0.4,0l0.1,0.1l0.9,1.6l0.3,0.4l1,1.4l0.3,0.4
		l0.8,1.5l0.3,0.4l0.9,1.4l0.2,0.3l0.2,0.1l0.2-0.2l0.8-1.5l0.3-0.4l1-1.4l0.3-0.4l0.8-1.5l0.3-0.4l0.9-1.5l0.3-0.3l0.3-0.1l0.4,0
		l1.6,0.1h0.5l1.9-0.1h0.5l1.8,0.1l0.4,0.1l0.2,0.1L218.8,153.8z"/>
	<path class="st62" d="M239.1,169.4l0,0.5l-0.1,0.5l-0.1,0.5l-0.2,0.7l-0.2,0.4l-0.3,0.6l-0.2,0.4l-0.4,0.6l-0.3,0.4l-0.4,0.4
		l-0.4,0.4l-0.6,0.4l-0.4,0.3l-0.5,0.3l-0.4,0.2l-0.7,0.3l-1,0.3l-0.5,0.1l-0.8,0.1l-0.5,0.1l-0.7,0.1l-0.4,0l-0.7,0l-1.5,0.1H227
		l-0.4,0l-0.7-0.1l-0.5-0.1l-0.5-0.1l-0.5-0.2l-0.7-0.2l-0.4-0.2l-0.5-0.2l-0.4-0.2l-0.4-0.3l-1-0.7l-0.4-0.3l-0.6-0.4l-0.4-0.3
		l-0.4-0.4l-0.3-0.3l0-0.2l0.2-0.3l0.1-0.2l0.3-0.4l0.9-0.8l0.3-0.4l0.5-0.8l0.3-0.4l0.3-0.4l0.4-0.2l0.4,0.1l0.4,0.3l1,0.7l0.5,0.3
		l0.4,0.2l0.7,0.4l0.5,0.2l0.5,0.2l0.5,0.1l0.7,0l0.5,0l2-0.1l0.5-0.1l0.3-0.1l0.5-0.2l0.4-0.3l0.3-0.3l0.2-0.2l0.2-0.5l0-0.5
		l-0.1-0.3l-0.3-0.4l-0.2-0.2l-0.4-0.3l-0.3-0.1l-0.5-0.2l-0.5-0.1l-0.5-0.1l-3-0.3l-1-0.2l-0.5-0.1l-0.7-0.3l-0.5-0.2l-0.5-0.2
		l-1.1-0.5l-0.4-0.3l-0.5-0.3l-0.4-0.3l-0.5-0.4l-0.3-0.4l-0.3-0.5l-0.2-0.5l-0.2-0.7l-0.1-0.5l-0.1-0.7l-0.1-1l0-0.5l0.1-0.8
		l0.1-0.5l0.1-0.4l0.2-0.5l0.3-0.7l0.2-0.4l0.3-0.4l0.3-0.4l0.5-0.5l0.4-0.3l0.4-0.3l0.4-0.2l0.6-0.4l1-0.4l0.5-0.2l0.7-0.1l0.5-0.1
		l1-0.1l0.7-0.1l0.5-0.1l0.5,0h0.5l1,0.1l0.5,0.1l0.2,0.1l0.5,0.1l1.1,0.2l0.5,0.1l0.5,0.2l0.5,0.2l0.5,0.2l0.5,0.2l0.5,0.2l0.6,0.4
		l0.4,0.2l0.4,0.3l0.3,0.3v0.3l-0.2,0.4l-0.4,0.6l-0.3,0.4l-1.2,1.6l-0.4,0.4l-0.4,0.3l-0.3,0.1l-0.2,0l-0.3-0.2l-0.5-0.3l-0.5-0.2
		l-0.2-0.1l-0.5-0.2l-0.3-0.1l-0.5-0.1l-0.7-0.2l-0.5,0l-0.8-0.1h-0.8l-0.5,0l-0.5,0.1l-0.5,0.2l-0.2,0.1l-0.4,0.3l-0.2,0.2
		l-0.2,0.4l-0.1,0.5l0.1,0.4l0.3,0.4l0.4,0.3l0.4,0.2l0.2,0.1l0.5,0.1l0.8,0.1l1.1,0.1l0.5,0.1l1.1,0.3l1,0.3l0.7,0.2l0.5,0.1
		l0.9,0.3l0.6,0.3l0.4,0.2l0.4,0.3l0.4,0.3l0.9,0.8l0.4,0.4l0.3,0.4l0.4,0.6l0.3,0.4l0.2,0.5l0.1,0.5l0.1,0.7l0.1,0.5L239.1,169.4z"
		/>
</g>
<g>
	<path class="st62" d="M96.6,189.3V201h7.1v0.9h-8.1v-12.6H96.6z"/>
	<path class="st62" d="M117.5,201.9l-1.4-3.1h-7.5l-1.4,3.1h-1l5.7-12.6h1.1l5.7,12.6H117.5z M115.7,197.9l-3.4-7.7l-3.4,7.7H115.7z
		"/>
	<path class="st62" d="M133,195.5c0.1,3.2-2,6.4-6.4,6.4c-1.4,0-2.8,0-4.3,0v-12.6c1.4,0,2.8,0,4.3,0
		C130.8,189.3,132.9,192.4,133,195.5z M123.3,190.2V201h3.3c3.7,0,5.5-2.8,5.4-5.5c-0.1-2.6-1.8-5.2-5.4-5.2H123.3z"/>
	<path class="st62" d="M147.1,201.9l-1.4-3.1h-7.5l-1.4,3.1h-1l5.7-12.6h1.1l5.7,12.6H147.1z M145.3,197.9l-3.4-7.7l-3.4,7.7H145.3z
		"/>
	<path class="st62" d="M160.3,201.9h-1.2l-6.6-6.2v6.2h-1v-12.6h1v5.7l6.1-5.7h1.2v0.1l-6.3,5.9L160.3,201.9L160.3,201.9z"/>
	<path class="st62" d="M172.5,201.9v-5.7h-8v5.7h-1v-12.6h1v6h8v-6h1v12.6H172.5z"/>
</g>
<polyline class="st63" points="88.6,195.6 1.5,195.6 1.5,1.5 270,1.5 270,195.9 180.6,195.9 "/>
</svg>
